<?xml version="1.0" encoding="UTF-8"?>
<svg width="700pt" height="700pt" version="1.1" viewBox="0 0 700 700" xmlns="http://www.w3.org/2000/svg">
 <path d="m114.8 50.398c-6.1836 0.003906-11.199 5.0078-11.199 11.18v368.89c0 6.1719 5.0156 11.176 11.199 11.18h266.54c17.121 39.902 56.848 67.953 103 67.953 61.734 0 112.05-50.168 112.05-111.77 0-21.41-6.1836-41.359-16.703-58.379v-277.87l0.003906-0.003906c0-6.1719-5.0156-11.176-11.203-11.18zm11.203 22.355 431.28 0.003906v240.43c-5.3047-4.5547-11.035-8.6055-17.133-12.117 1.4414-4.3242 0.10937-9.0898-3.3672-12.043l-98.07-92.078h-0.003907c-2.2031-2.082-5.1602-3.1875-8.1914-3.0547-3.0117 0.13281-5.8438 1.4688-7.8555 3.7109l-78.699 87.832-36.363-37.574c-2.0977-2.1758-4.9922-3.4141-8.0156-3.4297-2.8164-0.011719-5.5352 1.0312-7.6172 2.9258l-140.16 127.91c-2.2227 1.9961-3.5547 4.793-3.6992 7.7734-0.14453 2.9766 0.90625 5.8906 2.9258 8.0938 2.0156 2.1992 4.832 3.5039 7.8164 3.625 2.9883 0.12109 5.8984-0.95312 8.0859-2.9883l132.09-120.56 81.684 84.383c-5.3633 13.047-8.3672 27.289-8.3672 42.234 0 7.3359 0.73047 14.504 2.0898 21.449l-248.43 0.003906zm107.92 69.188c-27.707 0-50.41 22.652-50.41 50.301 0 27.648 22.703 50.289 50.41 50.289s50.398-22.641 50.398-50.289c0-27.648-22.691-50.301-50.398-50.301zm0 22.324c15.598 0 27.984 12.41 27.984 27.977 0 15.566-12.383 27.922-27.984 27.922-15.598 0-27.992-12.355-27.992-27.922 0-15.566 12.395-27.977 27.992-27.977zm197.8 56.82 70.832 66.48c-5.9258-0.97266-12.008-1.5078-18.203-1.5078-38.375 0-72.297 19.406-92.492 48.871l-32.293-33.371zm52.629 87.34c49.625 0 89.637 39.883 89.637 89.402s-40.012 89.402-89.637 89.402-89.594-39.883-89.594-89.402 39.969-89.402 89.594-89.402zm-0.16406 27.934c-2.9727 0.042969-5.8047 1.2656-7.875 3.3906-2.0703 2.1289-3.207 4.9883-3.1641 7.9531v38.949h-39.031c-6.0859 0.13672-10.949 5.1016-10.949 11.176 0 6.0781 4.8633 11.039 10.949 11.18h39.031v38.949c0 6.1758 5.0156 11.184 11.207 11.184 6.1914 0 11.207-5.0078 11.207-11.184v-38.949h39.066c3.0156 0.070313 5.9297-1.0781 8.0859-3.1836 2.1562-2.1016 3.375-4.9844 3.375-7.9961 0-3.0078-1.2188-5.8906-3.375-7.9961-2.1562-2.1016-5.0703-3.25-8.0859-3.1797h-39.066v-38.949c0.046875-3.0234-1.1406-5.9375-3.2852-8.0742-2.1406-2.1367-5.0625-3.3164-8.0898-3.2695z"/>
</svg>
